<?xml version="1.0" encoding="UTF-8"?>
<!DOCTYPE svg PUBLIC "-//W3C//DTD SVG 1.1//EN" "http://www.w3.org/Graphics/SVG/1.1/DTD/svg11.dtd">
<!-- Creator: CorelDRAW X7 -->
<svg xmlns="http://www.w3.org/2000/svg" xml:space="preserve" width="13.6982in" height="13.6982in" version="1.1" style="shape-rendering:geometricPrecision; text-rendering:geometricPrecision; image-rendering:optimizeQuality; fill-rule:evenodd; clip-rule:evenodd"
viewBox="0 0 116486 116486"
 xmlns:xlink="http://www.w3.org/1999/xlink">
 <defs>
  <style type="text/css">
   <![CDATA[
    .fil0 {fill:#0C0B8B}
    .fil2 {fill:#D5D9F6}
    .fil1 {fill:white}
   ]]>
  </style>
 </defs>
 <g id="Layer_x0020_1">
  <metadata id="CorelCorpID_0Corel-Layer"/>
  <g id="_355305620112">
   <circle class="fil0" cx="58243" cy="58243" r="58243"/>
   <path class="fil1" d="M57340 18049c0,0 6031,3937 6825,10366 795,6428 -5273,11846 -5273,11846l1626 975c0,0 3214,-4190 10004,-4984 6790,-795 13399,2383 13399,2383 0,0 -5453,7987 -12424,8457 -5453,367 -9248,-2110 -9248,-2110 0,0 -3212,5463 -3646,16298 -48,1207 -89,2427 -124,3642 933,-180 1840,-482 1840,-482 0,0 -759,-10293 7042,-13038 7801,-2745 17481,1589 17481,1589 0,0 -5418,10113 -11846,13580 -6429,3467 -10257,3395 -10257,3395l-470 11052 -2022 0 0 -10546c0,0 -942,153 -1893,237 -112,7327 -39,13288 -39,13288l-975 0 -974 0c0,0 72,-5961 -40,-13288 -951,-84 -1892,-237 -1892,-237l0 10546 -2023 0 -469 -11052c0,0 -3829,72 -10257,-3395 -6429,-3467 -11847,-13580 -11847,-13580 0,0 9680,-4334 17481,-1589 7801,2745 7042,13038 7042,13038 0,0 907,302 1840,482 -35,-1215 -76,-2435 -124,-3642 -434,-10835 -3646,-16298 -3646,-16298 0,0 -3795,2477 -9248,2110 -6971,-470 -12424,-8457 -12424,-8457 0,0 6609,-3178 13399,-2383 6790,794 10004,4984 10004,4984l1626 -975c0,0 -6068,-5418 -5273,-11846 794,-6429 6825,-10366 6825,-10366zm0 70498c2401,0 5362,-3033 8974,-3322 3612,-289 5020,1047 8054,939 3034,-109 5830,-1049 5830,-1049l1176 4083c0,0 -5742,1372 -9318,650 -3575,-723 -7692,-578 -9462,469 -1770,1048 -3465,3540 -5254,3540 -1789,0 -3484,-2492 -5254,-3540 -1769,-1047 -5887,-1192 -9462,-469 -3576,722 -9318,-650 -9318,-650l1176 -4083c0,0 2797,940 5830,1049 3034,108 4443,-1228 8054,-939 3612,289 6573,3322 8974,3322zm23962 -33985c0,0 -5309,-1733 -9896,398 -4586,2130 -7440,8884 -7440,8884 0,0 4768,-144 10185,-3359 5418,-3214 7151,-5923 7151,-5923zm-47924 0c0,0 5309,-1733 9896,398 4587,2130 7440,8884 7440,8884 0,0 -4768,-144 -10185,-3359 -5417,-3214 -7151,-5923 -7151,-5923zm23962 -5724c0,0 234,-1101 830,-2456 596,-1354 1353,-2870 1353,-2870l-2183 -1780 -2183 1780c0,0 757,1516 1353,2870 596,1355 830,2456 830,2456zm0 -12008c0,0 2780,-3504 2780,-7368 0,-3865 -2780,-6573 -2780,-6573 0,0 -2780,2708 -2780,6573 0,3864 2780,7368 2780,7368zm-20928 2473c0,0 3683,-577 7440,73 3756,650 5598,2708 5598,2708 0,0 -3179,1445 -7440,578 -4262,-867 -5598,-3359 -5598,-3359zm41856 0c0,0 -3683,-577 -7439,73 -3757,650 -5599,2708 -5599,2708 0,0 3179,1445 7440,578 4262,-867 5598,-3359 5598,-3359z"/>
   <path class="fil2" d="M30480 103367l4460 -7206c0,0 2740,1382 3010,2555 407,1760 -1126,2848 -2125,2502 939,754 1011,1968 72,3087 -939,1120 -3611,903 -5417,-938zm3665 -3540l1238 -1982c0,0 1232,592 1322,1206 91,614 -330,1462 -1172,1390 -841,-72 -1388,-614 -1388,-614zm-2005 3434l1606 -2572c0,0 1538,690 1655,1487 118,797 -335,1681 -1435,1776 -1092,94 -1826,-691 -1826,-691z"/>
   <path class="fil2" d="M44556 100689c2444,0 4424,1981 4424,4425 0,2443 -1980,4424 -4424,4424 -2443,0 -4424,-1981 -4424,-4424 0,-2444 1981,-4425 4424,-4425zm0 1481c1626,0 2944,1318 2944,2944 0,1625 -1318,2943 -2944,2943 -1625,0 -2943,-1318 -2943,-2943 0,-1626 1318,-2944 2943,-2944z"/>
   <path class="fil2" d="M56800 102423c1876,0 3479,1168 4123,2817l-1657 0c-526,-805 -1434,-1336 -2466,-1336 -1626,0 -2944,1317 -2944,2943 0,1626 1318,2944 2944,2944 1215,0 2258,-737 2707,-1788l-3520 0 0 -1210c1745,0 3491,0 5236,0 30,2465 -1958,4478 -4423,4478 -2444,0 -4425,-1980 -4425,-4424 0,-2443 1981,-4424 4425,-4424z"/>
   <path class="fil2" d="M68682 101195c2443,0 4424,1981 4424,4424 0,2444 -1981,4424 -4424,4424 -2444,0 -4424,-1980 -4424,-4424 0,-2443 1980,-4424 4424,-4424zm0 1481c1625,0 2943,1318 2943,2943 0,1626 -1318,2944 -2943,2944 -1626,0 -2944,-1318 -2944,-2944 0,-1625 1318,-2943 2944,-2943z"/>
   <path class="fil2" d="M78686 106775l-3756 -7440c0,0 3266,-2603 5200,-1336 2088,1366 1027,3716 -54,4397l3305 1815 -1372 794 -3548 -1865 1471 2804 -1246 831zm-2199 -7083l1513 2521c0,0 2074,-704 2066,-2067 -8,-1362 -1308,-1524 -1940,-1326 -632,199 -1639,872 -1639,872z"/>
   <polygon class="fil2" points="14876,85760 15536,86920 23283,82423 22525,81303 "/>
   <polygon class="fil2" points="18733,74766 10119,76915 9758,75362 15392,69638 8837,71263 8566,69891 16963,68121 17433,69548 11871,75055 18335,73484 "/>
   <polygon class="fil2" points="11096,32578 10355,33688 17784,38535 18508,37419 "/>
   <polygon class="fil2" points="17052,25253 22354,30951 23326,30042 18053,24370 19193,23364 18343,22514 14859,25657 15672,26470 "/>
   <polygon class="fil2" points="110212,55140 110103,53810 101271,54622 101396,55947 "/>
   <polygon class="fil2" points="102264,86203 94223,82441 94922,81008 102904,80116 96791,77246 97446,76009 105080,79929 104545,81333 96755,82102 102764,84958 "/>
   <polygon class="fil2" points="36882,9743 39139,17192 40412,16803 38169,9390 39924,8898 39534,7761 34734,9143 35107,10230 "/>
   <polygon class="fil2" points="91522,18126 86395,23982 87398,24856 92502,19031 93782,20226 94541,19293 90895,15986 90170,16877 "/>
   <path class="fil2" d="M75519 17851l3736 -7839c0,0 4228,1031 4418,3433 205,2591 -2409,3216 -3658,2760l611 3880 -1530 -624 -725 -4113 -1373 3000 -1479 -497zm4435 -6329l-1113 2855c0,0 1903,1260 3021,385 1117,-875 422,-2051 -145,-2445 -566,-394 -1763,-795 -1763,-795z"/>
   <polygon class="fil2" points="8127,45163 15537,47544 15941,46276 8569,43903 9073,42234 7915,41908 6412,46587 7518,46899 "/>
   <polygon class="fil2" points="109567,43553 101381,46990 100788,45510 105483,38994 99252,41600 98775,40285 106804,37255 107486,38593 102829,44885 108979,42346 "/>
   <path class="fil2" d="M23184 17192l1228 -907 4244 5381c161,204 903,271 1734,-325 830,-596 703,-1185 595,-1336l-3885 -5490 1014 -812 4190 5941c105,149 505,1586 -1228,2870 -1734,1283 -3334,495 -3504,326l-4388 -5648z"/>
   <path class="fil2" d="M7912 54961l0 1318c0,0 -1011,131 -1102,1411 -90,1280 2240,1063 2402,214 163,-849 1192,-2943 3269,-2943 2076,0 3268,2672 2383,4045 -885,1372 -2799,1372 -2799,1372l0 -1246c0,0 1680,-13 1662,-1442 -18,-1429 -2019,-1899 -2743,-779 -724,1120 -535,3021 -3208,3034 -2546,12 -3548,-4316 136,-4984z"/>
   <path class="fil2" d="M53653 13897l0 -8975c1950,0 5459,-302 5459,2240 0,2681 -1233,3105 -4014,3141l0 3594 -1445 0zm1336 -7793c0,1036 0,2073 0,3110 1322,0 2935,264 2935,-1657 0,-1336 -860,-1454 -2935,-1453z"/>
   <polygon class="fil2" points="64984,14646 66862,5906 71575,7134 71232,8253 67928,7477 67440,10012 70528,10601 70257,11883 67169,11233 66609,13671 69670,14393 69273,15657 "/>
   <path class="fil2" d="M91114 29264l9363 -2971 1084 1084 -5081 8270 -954 -954 1629 -2477 -2194 -2718 -2935 804 -912 -1038zm4935 -231l3751 -1133 -1932 3260 -1819 -2127z"/>
   <path class="fil2" d="M101008 61958l8460 4993 -85 1530 -9550 1733 74 -1347 2932 -440 560 -3447 -2556 -1650 165 -1372zm3464 3522l3347 2039 -3718 735 371 -2774z"/>
   <path class="fil1" d="M58243 414c31938,0 57829,25891 57829,57829 0,31938 -25891,57829 -57829,57829 -31938,0 -57829,-25891 -57829,-57829 0,-31938 25891,-57829 57829,-57829zm0 826c31482,0 57002,25521 57002,57003 0,31482 -25520,57002 -57002,57002 -31482,0 -57003,-25520 -57003,-57002 0,-31482 25521,-57003 57003,-57003z"/>
  </g>
 </g>
</svg>
